<svg width="179" height="72" viewBox="0 0 179 72" fill="none" xmlns="http://www.w3.org/2000/svg">
<g clip-path="url(#clip0_7_7)">
<path d="M51.1568 40.3199H47.8812C47.4958 40.4159 47.1105 40.1279 47.1105 39.7439C47.1105 39.6479 47.1105 39.6479 47.1105 39.5519V16.3199C47.0141 15.9359 47.3031 15.5519 47.6885 15.5519C47.7848 15.5519 47.7848 15.5519 47.8812 15.5519H57.3225C59.0566 15.4559 60.6944 16.0319 62.0432 17.1839C63.1993 18.4319 63.7773 20.1599 63.681 21.8879V25.6319C63.7773 27.3599 63.1993 28.9919 62.0432 30.2399C60.7908 31.3919 59.0566 31.9679 57.4189 31.8719H52.6019C52.3128 31.8719 52.1202 31.9679 52.1202 32.2559V39.5519C52.2165 39.9359 51.9275 40.3199 51.5421 40.4159C51.2531 40.3199 51.2531 40.3199 51.1568 40.3199ZM52.3128 27.5519H56.4555C57.0335 27.6479 57.7079 27.4559 58.1896 27.0719C58.5749 26.5919 58.7676 26.0159 58.6713 25.3439V22.0799C58.7676 21.4079 58.5749 20.8319 58.1896 20.3519C57.7079 19.9679 57.0335 19.7759 56.4555 19.8719H52.4092C52.2165 19.8719 52.0238 19.9679 52.0238 20.1599V20.2559V27.1679C51.9275 27.3599 52.0238 27.5519 52.3128 27.5519Z" fill="#3C3C3C"/>
<path d="M69.0756 40.32H65.4147C64.933 40.32 64.8366 40.032 64.933 39.552L71.0024 16.32C71.0988 15.84 71.6768 15.456 72.1585 15.552H77.2645C77.8426 15.456 78.3243 15.84 78.4206 16.32L84.49 39.456C84.6827 40.032 84.49 40.224 84.0083 40.224H80.3474C80.1547 40.224 79.962 40.224 79.7694 40.032C79.673 39.84 79.5767 39.648 79.5767 39.36L78.5169 35.136H71.0024L69.9427 39.36C69.9427 39.552 69.8463 39.84 69.6537 40.032C69.5573 40.224 69.2683 40.32 69.0756 40.32ZM74.6633 20.256L71.8695 31.392H77.5535L74.7597 20.256H74.6633Z" fill="#3C3C3C"/>
<path d="M94.124 40.3201H90.8485C90.2704 40.3201 89.9814 40.0321 89.9814 39.5521V20.2561C89.9814 20.0641 89.8851 19.8721 89.6924 19.8721H89.596H85.1644C84.779 19.9681 84.3937 19.6801 84.3937 19.2961C84.3937 19.2001 84.3937 19.2001 84.3937 19.1041V16.3201C84.2973 15.9361 84.5864 15.5521 84.9717 15.5521C85.0681 15.5521 85.0681 15.5521 85.1644 15.5521H99.8081C100.193 15.4561 100.579 15.7441 100.579 16.1281C100.579 16.2241 100.579 16.2241 100.579 16.3201V18.9121C100.675 19.2961 100.386 19.6801 100.001 19.6801C99.9044 19.6801 99.9044 19.6801 99.8081 19.6801H95.3764C95.0874 19.6801 94.8947 19.7761 94.8947 20.0641V39.3601C94.9911 39.7441 94.7021 40.1281 94.3167 40.1281C94.2204 40.3201 94.2204 40.3201 94.124 40.3201Z" fill="#3C3C3C"/>
<path d="M112.622 40.3201H109.347C108.768 40.3201 108.479 40.0321 108.479 39.5521V20.2561C108.479 20.0641 108.383 19.8721 108.19 19.8721H108.094H103.662C103.277 19.9681 102.892 19.6801 102.892 19.2961C102.892 19.2001 102.892 19.2001 102.892 19.1041V16.3201C102.795 15.9361 103.084 15.5521 103.47 15.5521C103.566 15.5521 103.566 15.5521 103.662 15.5521H118.306C118.692 15.4561 119.077 15.7441 119.077 16.1281C119.077 16.2241 119.077 16.2241 119.077 16.3201V18.9121C119.173 19.2961 118.884 19.6801 118.499 19.6801C118.402 19.6801 118.402 19.6801 118.306 19.6801H113.874C113.585 19.6801 113.393 19.7761 113.393 20.0641V39.3601C113.489 39.7441 113.2 40.1281 112.815 40.1281C112.815 40.3201 112.718 40.3201 112.622 40.3201Z" fill="#3C3C3C"/>
<path d="M135.84 40.32H123.219C122.834 40.416 122.448 40.128 122.448 39.744C122.448 39.648 122.448 39.648 122.448 39.552V16.32C122.352 15.936 122.641 15.552 123.026 15.552C123.123 15.552 123.123 15.552 123.219 15.552H135.84C136.321 15.552 136.61 15.84 136.61 16.32V18.912C136.61 19.488 136.321 19.68 135.84 19.68H127.747C127.458 19.68 127.265 19.776 127.265 20.064V25.056C127.265 25.344 127.458 25.44 127.747 25.44H134.395C134.78 25.344 135.165 25.632 135.165 26.016C135.165 26.112 135.165 26.112 135.165 26.208V28.8C135.262 29.184 134.973 29.568 134.587 29.568C134.491 29.568 134.491 29.568 134.395 29.568H127.747C127.458 29.568 127.265 29.664 127.265 29.952V35.328C127.265 35.616 127.458 35.712 127.747 35.712H135.84C136.321 35.712 136.61 36 136.61 36.48V39.072C136.61 40.032 136.321 40.32 135.84 40.32Z" fill="#3C3C3C"/>
<path d="M144.607 40.32H141.331C140.946 40.4159 140.561 40.128 140.561 39.7439C140.561 39.648 140.561 39.6479 140.561 39.552V16.3199C140.464 15.9359 140.753 15.5519 141.139 15.5519C141.235 15.5519 141.235 15.5519 141.331 15.5519H150.484C152.218 15.4559 153.952 16.0319 155.204 17.1839C156.36 18.4319 157.035 20.1599 156.938 21.8879V24.8639C156.938 27.7439 155.782 29.6639 153.47 30.6239V30.7199L157.613 39.3599C157.806 40.0319 157.613 40.32 156.938 40.32H153.759C153.47 40.32 153.085 40.3199 152.796 40.1279C152.507 39.9359 152.411 39.7439 152.314 39.4559L148.461 31.1039H145.859C145.57 31.1039 145.378 31.1999 145.378 31.4879V39.3599C145.474 39.7439 145.185 40.1279 144.8 40.1279C144.8 40.3199 144.703 40.32 144.607 40.32ZM145.859 27.2639H149.617C150.291 27.3599 150.869 27.1679 151.447 26.7839C151.832 26.3039 152.121 25.7279 152.025 25.0559V22.0799C152.121 21.4079 151.832 20.8319 151.447 20.3519C150.965 19.9679 150.291 19.7759 149.617 19.7759H145.859C145.667 19.7759 145.474 19.8719 145.474 20.0639V20.1599V26.8799C145.378 27.0719 145.57 27.2639 145.859 27.2639C145.763 27.2639 145.859 27.2639 145.859 27.2639Z" fill="#3C3C3C"/>
<path d="M165.513 40.3201H162.333C161.948 40.4161 161.563 40.1281 161.563 39.7441C161.563 39.6481 161.563 39.6481 161.563 39.5521V16.3201C161.466 15.9361 161.755 15.5521 162.141 15.5521C162.237 15.5521 162.237 15.5521 162.333 15.5521H165.224C165.705 15.4561 166.091 15.7441 166.283 16.1281L174.087 30.7201H174.279V16.3201C174.183 15.9361 174.472 15.5521 174.858 15.5521C174.954 15.5521 174.954 15.5521 175.05 15.5521H178.326C178.711 15.4561 179.097 15.7441 179.097 16.1281C179.097 16.2241 179.097 16.2241 179.097 16.3201V39.4561C179.193 39.84 178.904 40.2241 178.518 40.3201C178.422 40.3201 178.326 40.3201 178.229 40.3201H175.436C174.858 40.3201 174.376 40.0321 174.183 39.5521L166.476 25.2481H166.283V39.5521C166.38 39.9361 166.091 40.32 165.705 40.416C165.609 40.32 165.513 40.3201 165.513 40.3201Z" fill="#3C3C3C"/>
<path d="M51.2529 58.464H50.2895C50.0968 58.464 50.0005 58.368 50.0005 58.272V58.176V46.176C50.0005 46.08 49.9041 45.984 49.8078 45.984H46.8212C46.6286 45.984 46.5322 45.888 46.5322 45.696V44.928C46.5322 44.736 46.6286 44.64 46.8212 44.64H54.7211C54.9138 44.64 55.0102 44.736 55.0102 44.928V45.696C55.0102 45.888 54.9138 45.984 54.7211 45.984H51.7346C51.5419 45.984 51.5419 46.08 51.5419 46.176V58.176C51.5419 58.368 51.4456 58.464 51.2529 58.464Z" fill="#3C3C3C"/>
<path d="M56.8403 58.464H55.8769C55.6842 58.464 55.5879 58.368 55.5879 58.272V58.176V47.712C55.5879 47.52 55.6842 47.424 55.7806 47.424H55.8769H56.8403C57.033 47.424 57.1293 47.52 57.1293 47.616V47.712V48.576H57.2257C57.4184 48.192 57.7074 47.904 58.0927 47.712C58.5744 47.52 59.0561 47.328 59.5378 47.328H60.4049C60.5976 47.328 60.6939 47.424 60.6939 47.616V48.384C60.6939 48.48 60.6939 48.576 60.5976 48.576C60.5012 48.672 60.5012 48.672 60.4049 48.672H59.2488C58.6708 48.672 58.0927 48.864 57.7074 49.248C57.322 49.728 57.1293 50.304 57.2257 50.88V58.08C57.2257 58.272 57.1293 58.368 57.033 58.368C56.9367 58.464 56.8403 58.464 56.8403 58.464Z" fill="#3C3C3C"/>
<path d="M66.9565 58.464H65.8004C64.1626 58.56 62.7175 57.408 62.6212 55.776C62.6212 55.584 62.6212 55.392 62.6212 55.296V50.688C62.4285 49.056 63.6809 47.616 65.3187 47.52C65.5114 47.52 65.704 47.52 65.8967 47.52H70.6174C70.8101 47.52 70.9064 47.616 70.9064 47.712V47.808V58.272C70.9064 58.464 70.8101 58.56 70.7137 58.56H70.6174H69.654C69.4613 58.56 69.365 58.464 69.365 58.368V58.272V57.408H69.2686C68.6906 58.176 67.8235 58.56 66.9565 58.464ZM69.2686 55.104V49.056C69.2686 48.96 69.1723 48.864 69.0759 48.864H65.9931C64.837 48.864 64.1626 49.536 64.1626 50.784V55.296C64.1626 56.544 64.7406 57.216 65.9931 57.216H67.2455C67.8235 57.216 68.3052 57.024 68.7869 56.736C69.076 56.256 69.2686 55.68 69.2686 55.104Z" fill="#3C3C3C"/>
<path d="M77.8429 58.464H76.5905C75.7234 58.464 74.8563 58.176 74.2783 57.5999C73.7003 56.9279 73.4112 56.064 73.4112 55.2V50.592C73.3149 49.728 73.7003 48.864 74.2783 48.192C74.8563 47.616 75.7234 47.328 76.5905 47.328H77.8429C78.71 47.232 79.6734 47.712 80.0587 48.48H80.1551V43.488C80.1551 43.296 80.2514 43.2 80.4441 43.2H81.4075C81.6002 43.2 81.6965 43.296 81.6965 43.488V58.08C81.6965 58.2719 81.6002 58.3679 81.4075 58.3679H80.4441C80.2514 58.3679 80.1551 58.2719 80.1551 58.08V57.2159H80.0587C79.6734 58.1759 78.8063 58.56 77.8429 58.464ZM80.2514 55.104V50.784C80.2514 50.208 80.0587 49.728 79.7697 49.344C79.3843 48.96 78.8063 48.768 78.2282 48.864H76.8795C75.7234 48.864 75.049 49.536 75.049 50.784V55.2959C75.049 56.5439 75.6271 57.2159 76.8795 57.2159H78.2282C78.8063 57.2159 79.288 57.0239 79.7697 56.7359C80.0587 56.2559 80.2514 55.68 80.2514 55.104Z" fill="#3C3C3C"/>
<path d="M92.1975 58.464H87.6695C86.0317 58.656 84.5866 57.408 84.4903 55.776C84.4903 55.584 84.4903 55.392 84.4903 55.2V50.592C84.2976 48.96 85.55 47.52 87.1878 47.424C87.3805 47.424 87.5732 47.424 87.7659 47.424H89.5963C91.1378 47.232 92.5829 48.384 92.7756 50.016C92.7756 50.208 92.7756 50.496 92.7756 50.688V53.472C92.7756 53.664 92.6792 53.76 92.4865 53.76H86.3208C86.1281 53.76 86.1281 53.856 86.1281 53.952V55.296C85.9354 56.16 86.5134 57.024 87.4769 57.216C87.6695 57.216 87.8622 57.216 87.9586 57.216H92.3902C92.5829 57.216 92.6792 57.312 92.6792 57.408V57.504V58.272C92.5829 58.368 92.4865 58.464 92.1975 58.464ZM86.2244 52.608H90.9451C91.0414 52.608 91.1378 52.512 91.1378 52.416C91.1378 52.416 91.1378 52.416 91.1378 52.32V50.688C91.2341 49.824 90.6561 48.96 89.789 48.864C89.5963 48.864 89.5 48.864 89.3073 48.864H87.8622C86.9951 48.768 86.1281 49.344 86.0317 50.304C86.0317 50.496 86.0317 50.592 86.0317 50.784V52.416C85.9354 52.416 86.0317 52.512 86.2244 52.608C86.1281 52.608 86.2244 52.608 86.2244 52.608Z" fill="#3C3C3C"/>
<path d="M96.436 58.464H95.4726C95.2799 58.464 95.1836 58.368 95.1836 58.272V58.176V47.712C95.1836 47.52 95.2799 47.424 95.3763 47.424H95.4726H96.436C96.6287 47.424 96.725 47.52 96.725 47.616V47.712V48.576H96.8214C97.0141 48.192 97.3031 47.904 97.6884 47.712C98.1701 47.52 98.6518 47.328 99.1335 47.328H100.001C100.193 47.328 100.29 47.424 100.29 47.616V48.384C100.29 48.48 100.29 48.576 100.193 48.576C100.097 48.672 100.097 48.672 100.001 48.672H98.8445C98.2665 48.672 97.6884 48.864 97.3031 49.248C96.9177 49.728 96.725 50.304 96.8214 50.88V58.08C96.8214 58.368 96.725 58.464 96.436 58.464C96.5324 58.464 96.5324 58.464 96.436 58.464Z" fill="#3C3C3C"/>
<path d="M15.5108 3.648L16.9559 5.088C17.2449 5.376 17.2449 5.76 16.9559 6.048C16.6668 6.336 16.2815 6.336 15.9925 6.048L13.9693 4.128L13.1986 4.896L13.873 5.568L12.9096 6.528L12.2352 5.856L11.4645 6.72L13.3913 8.64C13.6803 8.928 13.6803 9.312 13.3913 9.6C13.1023 9.888 12.7169 9.888 12.4279 9.6L10.5011 7.68L9.73036 8.448L10.4047 9.12L9.44133 10.08L8.67061 9.504L7.89989 10.272L9.8267 12.192C10.1157 12.48 10.1157 12.864 9.8267 13.152C9.53767 13.44 9.15231 13.44 8.86329 13.152L6.93649 11.232L6.16577 12L6.74381 12.672L5.78041 13.632L5.10603 12.96L4.33531 13.728L6.26211 15.648C6.55113 15.936 6.55113 16.32 6.26211 16.608C5.97309 16.896 5.58773 16.896 5.29871 16.608L3.37191 14.688L2.60118 15.456L3.17922 16.032L2.21582 16.992L1.63778 16.416L0.867061 17.28L2.79386 19.2C3.08288 19.488 3.08288 19.872 2.79386 20.16C2.50484 20.448 2.11948 20.448 1.83046 20.16L0 18.336V42.528C0 42.912 0.28902 43.2 0.674381 43.2H18.5936C18.979 43.2 19.268 42.912 19.268 42.528V0.672C19.268 0.288 18.979 0 18.5936 0C18.401 0 18.2083 0.096 18.1119 0.192L15.6071 2.688C15.3181 2.976 15.3181 3.456 15.5108 3.648ZM5.87675 20.736L3.56459 18.432C3.27557 18.144 3.27557 17.76 3.56459 17.472C3.85361 17.184 4.23897 17.184 4.52799 17.472L6.84015 19.776C7.12917 20.064 7.12917 20.448 6.84015 20.736C6.55113 21.024 6.16577 21.024 5.87675 20.736ZM9.44133 17.28L7.12917 14.976C6.84015 14.688 6.84015 14.304 7.12917 14.016C7.41819 13.728 7.80355 13.728 8.09257 14.016L10.4047 16.32C10.6938 16.608 10.6938 16.992 10.4047 17.28C10.1157 17.568 9.73036 17.568 9.44133 17.28ZM12.9096 13.728L10.6938 11.52C10.4047 11.232 10.4047 10.848 10.6938 10.56C10.9828 10.272 11.3681 10.272 11.6572 10.56L13.9693 12.864C14.2583 13.152 14.2583 13.536 13.9693 13.824C13.6803 14.016 13.1986 14.016 12.9096 13.728ZM16.4742 10.272L14.162 7.968C13.873 7.68 13.873 7.296 14.162 7.008C14.451 6.72 14.8364 6.72 15.1254 7.008L17.4376 9.312C17.7266 9.6 17.7266 9.984 17.4376 10.272C17.1485 10.464 16.7632 10.464 16.4742 10.272Z" fill="url(#paint0_linear_7_7)"/>
<path d="M24.7599 54.912L23.3148 53.472C23.0258 53.184 23.0258 52.8 23.3148 52.512C23.6038 52.224 23.9892 52.224 24.2782 52.512L26.205 54.432L26.9757 53.664L26.3013 52.992L27.2647 52.032L27.9391 52.704L28.7098 51.936L26.783 50.016C26.494 49.728 26.494 49.344 26.783 49.056C27.0721 48.768 27.4574 48.768 27.7464 49.056L29.6732 50.976L30.444 50.208L29.8659 49.44L30.8293 48.48L31.5037 49.152L32.2744 48.384L30.3476 46.464C30.0586 46.176 30.0586 45.792 30.3476 45.504C30.6366 45.216 31.022 45.216 31.311 45.504L33.2378 47.424L34.0086 46.656L33.3342 45.984L34.2976 45.024L34.972 45.696L35.7427 44.928L33.8159 43.008C33.5269 42.72 33.5269 42.336 33.8159 42.048C34.1049 41.76 34.4903 41.76 34.7793 42.048L36.7061 43.968L37.4768 43.2L36.8988 42.624L37.8622 41.664L38.4402 42.24L39.2109 41.472L37.2841 39.552C36.9951 39.264 36.9951 38.88 37.2841 38.592C37.5731 38.304 37.9585 38.304 38.2475 38.592L40.1743 40.512L40.2707 40.416V16.032C40.2707 15.648 39.9816 15.36 39.5963 15.36H21.8697C21.4843 15.36 21.1953 15.648 21.1953 16.032V57.888C21.1953 58.272 21.4843 58.56 21.8697 58.56C22.0624 58.56 22.2551 58.464 22.3514 58.368L24.7599 55.872C25.0489 55.68 25.0489 55.2 24.7599 54.912ZM34.2976 37.824L36.6097 40.128C36.8988 40.416 36.8988 40.8 36.6097 41.088C36.3207 41.376 35.9354 41.376 35.6463 41.088L33.3342 38.784C33.0451 38.496 33.0451 38.112 33.3342 37.824C33.6232 37.632 34.1049 37.632 34.2976 37.824ZM30.8293 41.376L33.1415 43.68C33.4305 43.968 33.4305 44.352 33.1415 44.64C32.8525 44.928 32.4671 44.928 32.1781 44.64L29.8659 42.336C29.5769 42.048 29.5769 41.664 29.8659 41.376C30.1549 41.088 30.5403 41.088 30.8293 41.376ZM27.2647 44.928L29.5769 47.232C29.8659 47.52 29.8659 47.904 29.5769 48.192C29.2879 48.48 28.9025 48.48 28.6135 48.192L26.3013 45.888C26.0123 45.6 26.0123 45.216 26.3013 44.928C26.5904 44.64 26.9757 44.64 27.2647 44.928ZM23.7965 48.384L26.0123 50.688C26.3013 50.976 26.3013 51.36 26.0123 51.648C25.7233 51.936 25.3379 51.936 25.0489 51.648L22.7368 49.344C22.4477 49.056 22.4477 48.672 22.7368 48.384C23.0258 48.192 23.4111 48.192 23.7965 48.384Z" fill="url(#paint1_linear_7_7)"/>
</g>
<defs>
<linearGradient id="paint0_linear_7_7" x1="9.63401" y1="3.7536" x2="9.63401" y2="43.2096" gradientUnits="userSpaceOnUse">
<stop stop-color="#83D0F5"/>
<stop offset="1" stop-color="#009BD9"/>
</linearGradient>
<linearGradient id="paint1_linear_7_7" x1="30.7619" y1="57.4848" x2="30.7619" y2="15.3408" gradientUnits="userSpaceOnUse">
<stop stop-color="#83D0F5"/>
<stop offset="1" stop-color="#009BD9"/>
</linearGradient>
<clipPath id="clip0_7_7">
<rect width="179" height="72" fill="white"/>
</clipPath>
</defs>
</svg>
