<svg width="26" height="28" viewBox="0 0 26 28" fill="none" xmlns="http://www.w3.org/2000/svg">
<path d="M12.3169 27.0054C12.7089 27.2147 13.2009 27.2134 13.5929 27.004C24.2756 21.2654 25.0342 10.0534 25.0249 6.86535C25.0239 6.60913 24.9482 6.35876 24.807 6.14491C24.6659 5.93106 24.4654 5.76301 24.2302 5.66135L13.4969 0.906687C13.3261 0.831393 13.1414 0.792618 12.9547 0.792848C12.7681 0.793077 12.5835 0.832306 12.4129 0.90802L1.75422 5.66269C1.52248 5.7644 1.32487 5.93059 1.18492 6.14146C1.04497 6.35232 0.968595 6.59897 0.964883 6.85202C0.919549 10.024 1.55822 21.26 12.3169 27.0054ZM8.56488 11.724L11.6222 14.7814L17.3462 9.05735L19.2316 10.9427L11.6222 18.552L6.67955 13.6094L8.56488 11.724Z" fill="#00BC00"/>
</svg>
